<svg width="221" height="93" viewBox="0 0 221 93" fill="none" xmlns="http://www.w3.org/2000/svg">
<path d="M4.288 59H26.432C36.864 59 42.944 54.584 42.944 46.072C42.944 40.76 39.744 37.496 35.072 35.96C38.784 34.168 41.472 31.032 41.472 25.848C41.472 19.192 37.248 14.584 27.2 14.584H4.288V59ZM29.12 28.216C29.12 31.288 27.2 32.76 22.976 32.76H16.384V23.672H22.976C27.328 23.672 29.12 25.144 29.12 28.216ZM30.592 45.304C30.592 48.44 28.608 49.912 24.32 49.912H16.384V40.632H24.32C28.608 40.632 30.592 42.104 30.592 45.304ZM77.5745 59H90.2465L74.8225 14.584H58.8865L43.4625 59H55.8785L58.1185 51.832H75.3345L77.5745 59ZM66.7585 24.312L72.3265 42.296H61.1265L66.7585 24.312ZM110.35 59.768C122.382 59.768 129.934 54.136 129.934 45.176C129.934 37.88 125.134 34.104 117.646 32.568L108.046 30.584C104.206 29.816 103.054 28.6 103.054 26.616C103.054 24.44 105.294 22.648 109.326 22.648C113.806 22.648 117.07 24.568 117.39 28.6H129.294C129.294 17.976 120.334 13.816 109.262 13.816C98.638 13.816 90.894 19.128 90.894 27.768C90.894 35.064 95.694 38.84 103.182 40.376L112.782 42.36C116.622 43.128 117.774 44.344 117.774 46.328C117.774 49.144 115.022 50.744 110.67 50.744C105.742 50.744 102.158 48.184 101.902 43.576H89.998C90.254 53.56 97.038 59.768 110.35 59.768ZM134.046 59H146.142V14.584H134.046V59ZM162.669 36.792C162.669 29.368 166.701 23.928 173.229 23.928C178.797 23.928 182.125 27.128 182.829 31.032H195.501C194.413 19.384 184.557 13.816 173.229 13.816C158.509 13.816 149.933 22.968 149.933 36.792C149.933 50.616 158.509 59.768 173.229 59.768C184.557 59.768 194.477 54.2 195.565 42.552H182.829C182.125 46.456 178.797 49.656 173.229 49.656C166.701 49.656 162.669 44.216 162.669 36.792Z" fill="black"/>
<path d="M2.43 81.51C2.484 78.792 3.492 76.308 5.094 74.202H3.654C2.16 76.2 1.08 78.9 1.08 81.51C1.08 84.12 2.16 86.82 3.654 88.818H5.094C3.492 86.712 2.484 84.228 2.43 81.51ZM15.6732 78.288C15.6732 75.696 14.0172 74.508 11.1732 74.508H6.40322V87H7.86122V82.068H11.1732C14.0172 82.068 15.6732 80.88 15.6732 78.288ZM14.1612 78.288C14.1612 79.998 13.2612 80.772 11.1732 80.772H7.86122V75.804H11.1732C13.2612 75.804 14.1612 76.578 14.1612 78.288ZM25.5675 87H27.1335L22.0395 74.508H20.3115L15.2355 87H16.7295L18.1695 83.4H24.1275L25.5675 87ZM21.1575 75.894L23.6235 82.122H18.6735L21.1575 75.894ZM28.5706 87H30.0286V81.654H33.7186L37.0306 87H38.7226L35.3026 81.492C37.0666 81.078 38.1646 79.98 38.1646 78.09C38.1646 75.768 36.5446 74.508 33.8266 74.508H28.5706V87ZM30.0286 80.376V75.804H33.7726C35.5546 75.804 36.6526 76.434 36.6526 78.09C36.6526 79.746 35.5546 80.376 33.7726 80.376H30.0286ZM39.1268 75.84H43.5548V87H45.0128V75.84H49.4408V74.508H39.1268V75.84ZM65.0808 80.754C65.0808 76.884 62.6688 74.31 59.1228 74.31C55.5768 74.31 53.1648 76.884 53.1648 80.754C53.1648 84.624 55.5768 87.198 59.1228 87.198C62.6688 87.198 65.0808 84.624 65.0808 80.754ZM63.5508 80.754C63.5508 84.012 61.5888 85.902 59.1228 85.902C56.6568 85.902 54.6948 84.012 54.6948 80.754C54.6948 77.496 56.6568 75.606 59.1228 75.606C61.5888 75.606 63.5508 77.496 63.5508 80.754ZM66.9641 87H68.4221V81.24H74.3981V79.944H68.4221V75.804H75.2621V74.508H66.9641V87ZM91.1434 80.754C91.1434 77.226 89.2174 74.508 84.3214 74.508H79.0834V87H84.3214C89.2174 87 91.1434 84.282 91.1434 80.754ZM87.5794 80.754C87.5794 83.22 86.1934 84.138 84.2674 84.138H82.4854V77.37H84.2674C86.1934 77.37 87.5794 78.288 87.5794 80.754ZM92.1974 87H102.097V84.156H95.5994V82.014H101.305V79.314H95.5994V77.352H101.935V74.508H92.1974V87ZM114.014 78.846C114.014 75.696 111.998 74.508 108.866 74.508H103.448V87H106.85V83.184H108.866C111.998 83.184 114.014 81.996 114.014 78.846ZM110.486 78.846C110.486 80.07 109.91 80.574 108.524 80.574H106.85V77.118H108.524C109.91 77.118 110.486 77.622 110.486 78.846ZM113.957 77.424H117.899V87H121.301V77.424H125.243V74.508H113.957V77.424ZM127.855 81.51C127.801 84.228 126.793 86.712 125.191 88.818H126.631C128.125 86.82 129.205 84.12 129.205 81.51C129.205 78.9 128.125 76.2 126.631 74.202H125.191C126.793 76.308 127.801 78.792 127.855 81.51Z" fill="black"/>
<path d="M200.2 21.96C200.2 27 204.28 31.08 209.32 31.08C214.36 31.08 218.48 27 218.48 21.96C218.48 16.92 214.36 12.8 209.32 12.8C204.28 12.8 200.2 16.92 200.2 21.96ZM202 21.96C202 17.8 205.24 14.44 209.32 14.44C213.4 14.44 216.68 17.8 216.68 21.96C216.68 26.12 213.4 29.44 209.32 29.44C205.24 29.44 202 26.12 202 21.96ZM205.6 26.48H207.44V23.12H209.96L212.04 26.48H214.04L211.68 22.88C212.92 22.48 213.64 21.32 213.64 20.12C213.64 18 212.28 17 209.96 17H205.6V26.48ZM211.76 20.16C211.76 21.16 211.16 21.72 210.24 21.72H207.44V18.52H210.24C211.16 18.52 211.76 19.12 211.76 20.16Z" fill="black"/>
</svg>
