<svg width="408" height="216" viewBox="0 0 408 216" fill="none" xmlns="http://www.w3.org/2000/svg">
<path d="M0.875977 210.009H102.682C150.643 210.009 178.595 189.707 178.595 150.573C178.595 126.151 163.884 111.145 142.404 104.083C159.47 95.8448 171.828 81.4272 171.828 57.5939C171.828 26.9932 152.408 5.8081 106.213 5.8081H0.875977V210.009ZM115.04 68.4807C115.04 82.6041 106.213 89.3716 86.7934 89.3716H56.4869V47.5898H86.7934C106.802 47.5898 115.04 54.3573 115.04 68.4807ZM121.808 147.042C121.808 161.46 112.686 168.227 92.9724 168.227H56.4869V125.563H92.9724C112.686 125.563 121.808 132.33 121.808 147.042Z" fill="black"/>
<path d="M192.907 107.881C192.962 167.185 241.014 215.148 300.317 215.093C359.621 215.038 408.055 166.986 408 107.682C407.945 48.3786 359.422 -0.0548262 300.118 4.65803e-05C240.815 0.0549194 192.852 48.5776 192.907 107.881ZM214.087 107.862C214.042 58.9126 252.129 19.3416 300.136 19.2972C348.144 19.2528 386.775 58.7528 386.82 107.702C386.865 156.651 348.307 195.751 300.3 195.796C252.292 195.84 214.132 156.81 214.087 107.862ZM256.496 161.007L278.146 160.987L278.11 121.452L307.761 121.424L332.272 160.937L355.806 160.915L327.997 118.581C342.583 113.861 351.043 100.204 351.03 86.0843C351.007 61.1392 334.993 49.3874 307.695 49.4127L256.393 49.4602L256.496 161.007ZM328.909 86.5754C328.92 98.342 321.866 104.938 311.041 104.948L278.094 104.978L278.06 67.3253L311.006 67.2948C321.831 67.2848 328.898 74.3382 328.909 86.5754Z" fill="black"/>
</svg>
