<svg width="114" height="60" viewBox="0 0 114 60" fill="none" xmlns="http://www.w3.org/2000/svg">
<path d="M0 58.5818H28.3988C41.7774 58.5818 49.5747 52.9185 49.5747 42.0022C49.5747 35.1898 45.4708 31.0038 39.4792 29.034C44.2397 26.7358 47.6869 22.714 47.6869 16.0658C47.6869 7.52973 42.2698 1.62016 29.3837 1.62016H0V58.5818ZM31.846 19.1026C31.846 23.0423 29.3837 24.9301 23.9666 24.9301H15.5126V13.2751H23.9666C29.5478 13.2751 31.846 15.1629 31.846 19.1026ZM33.7338 41.0173C33.7338 45.0391 31.1894 46.9268 25.6902 46.9268H15.5126V35.0256H25.6902C31.1894 35.0256 33.7338 36.9134 33.7338 41.0173Z" fill="#EFEFEF"/>
<path d="M53.5669 30.0933C53.5822 46.636 66.9863 60.0153 83.5289 60C100.072 59.9847 113.582 46.5805 113.567 30.0378C113.552 13.4952 100.016 -0.0152937 83.4734 1.29935e-05C66.9307 0.0153197 53.5516 13.5507 53.5669 30.0933ZM59.475 30.0879C59.4623 16.4336 70.0867 5.39533 83.4784 5.38294C96.8701 5.37055 107.646 16.389 107.659 30.0433C107.671 43.6976 96.9156 54.6047 83.5239 54.6171C70.1323 54.6294 59.4876 43.7421 59.475 30.0879ZM71.3049 44.9128L77.3443 44.9072L77.3341 33.8788L85.6054 33.8711L92.4427 44.8933L99.0073 44.8872L91.2502 33.0782C95.319 31.7615 97.6787 27.9519 97.6751 24.0131C97.6686 17.0547 93.2017 13.7766 85.5868 13.7836L71.2761 13.7969L71.3049 44.9128ZM91.5045 24.1501C91.5075 27.4324 89.5399 29.2723 86.5202 29.2751L77.3298 29.2836L77.3201 18.7803L86.5105 18.7718C89.5302 18.769 91.5013 20.7366 91.5045 24.1501Z" fill="#EFEFEF"/>
</svg>
