<svg width="300" height="58" viewBox="0 0 300 58" fill="none" xmlns="http://www.w3.org/2000/svg">
<path d="M255.99 0.738037C253.022 0.738037 248.557 3.21598 248.557 6.49757C248.557 9.2434 250.484 10.6498 253.245 10.6498C256.698 10.6498 262.152 9.17643 262.152 4.95723C262.152 1.47472 258.96 0.738037 255.99 0.738037ZM85.2135 3.18249C84.8452 3.09945 84.8117 3.48386 84.8117 3.48386C82.6379 8.32589 77.9968 11.7803 72.8239 13.2617C72.8239 13.2617 72.5895 13.3099 72.5895 13.5965V16.6772C72.5895 17.1286 72.8239 17.0121 72.8239 17.0121H75.7371C76.0653 17.0121 75.9715 17.28 75.9715 17.28V36.8356C75.9715 42.6608 78.3946 45.6758 84.6778 45.6758C90.2806 45.6758 90.6932 45.5379 95.1253 42.3607C95.1253 42.3607 95.4092 42.2616 95.2592 41.9254C95.1388 41.6549 93.9869 38.9452 93.8864 38.6103C93.7632 38.2005 93.4846 38.4429 93.4846 38.4429C92.6742 38.8555 92.4853 38.8447 91.442 38.8447C90.4065 38.8447 88.6292 38.4429 88.6292 36.3668V17.28C88.6292 17.28 88.5617 17.0121 88.9305 17.0121H93.384C93.384 17.0121 93.6694 17.1541 93.7524 16.7442C93.851 16.2459 94.69 12.0897 94.69 12.0897C94.69 12.0897 94.8172 11.7883 94.4891 11.7883H88.8635C88.8635 11.7883 88.6292 11.8901 88.6292 11.5204V9.10946C88.6292 7.67225 88.717 5.77964 89.031 4.18706C89.031 4.18706 89.2064 3.93391 88.7966 3.85221C88.2274 3.73835 85.5833 3.26286 85.2135 3.18249ZM160.757 5.62695C157.028 5.62695 155.792 6.63152 154.964 9.10946C154.964 9.10946 154.403 10.7369 154.228 11.3195C154.104 11.7307 153.826 11.6209 153.826 11.6209C151.981 11.3356 149.999 10.7837 146.526 10.7837C139.001 10.7837 131.122 14.936 131.122 24.5798C131.122 31.4123 136.743 35.3515 142.508 36.3668C142.508 36.3668 143.418 36.5034 142.508 36.7686C140.797 37.2642 137.214 39.3926 133.132 40.0502C133.132 40.0502 132.726 40.0944 132.931 40.586C133.031 40.8271 134.163 43.6707 134.337 44.1355C134.46 44.4636 134.873 44.4034 134.873 44.4034C136.78 44.0136 142.263 44.5145 143.244 44.6378C144.103 44.7463 143.244 44.8722 143.244 44.8722C140.365 45.3624 137.016 47.4479 137.016 50.5647C137.016 55.9881 143.23 57.2619 149.305 57.2619C153.448 57.2619 163.436 55.5206 163.436 48.2207C163.436 40.9021 152.134 39.4783 146.593 38.9452C145.65 38.8554 146.593 38.6773 146.593 38.6773C154.858 36.6347 164.541 34.4474 164.541 24.0441C164.541 16.2084 158.045 14.1323 158.045 12.7929C158.045 12.0562 158.49 11.3664 159.317 11.3195C160.753 11.2365 160.813 11.3624 161.527 11.7883C161.527 11.7883 161.739 12.1459 161.862 11.6544C161.935 11.3637 163.168 6.50159 163.235 6.12923C163.318 5.67784 162.934 5.79437 162.934 5.79437C162.212 5.72472 161.465 5.62695 160.757 5.62695ZM47.1069 9.2434C46.9602 9.28787 46.9395 9.4778 46.9395 9.4778C46.9395 9.4778 42.952 19.2811 42.7872 19.6909C42.6238 20.1008 42.9212 20.1262 42.9212 20.1262C42.9212 20.1262 46.2349 21.3009 46.6046 21.4657C46.9729 21.6291 47.1069 21.3653 47.1069 21.3653C48.9124 19.1432 50.726 17.7488 54.6077 17.7488C57.6455 17.7488 59.1617 18.8873 59.1617 21.6332V22.6712C59.1617 23.0396 59.0278 23.073 59.0278 23.073L49.6853 23.3074C43.5413 23.3074 38.568 27.7289 38.568 35.4962C38.568 41.7259 43.2694 45.6759 49.5513 45.6759C53.2656 45.6759 56.1989 44.0753 58.8938 41.9255C58.8938 41.9255 59.3399 41.2276 59.4631 41.9255C59.5863 42.6233 59.8475 43.5194 60.0324 44.303C60.1288 44.7088 60.4007 44.6713 60.4007 44.6713H73.4936C73.4936 44.6713 73.9959 44.8374 73.9959 44.303V41.0214C73.9959 41.0214 74.0936 40.653 73.5606 40.653H72.0537C71.7256 40.653 71.7858 40.0503 71.7858 40.0503V21.901C71.7858 13.9984 66.6933 10.7838 58.9608 10.7838C56.2284 10.7838 53.5991 11.1629 51.0247 12.1567C51.0247 12.1567 50.4622 12.5009 50.7903 11.7214C50.947 11.349 51.0917 10.9177 51.0917 10.9177C51.0917 10.9177 51.2671 10.5467 50.8573 10.382C50.4059 10.2172 47.7954 9.42561 47.3078 9.24345C47.2257 9.2127 47.1558 9.22867 47.1069 9.24345V9.2434ZM104.066 9.2434C103.919 9.28787 103.899 9.4778 103.899 9.4778C103.899 9.4778 99.9111 19.2811 99.7464 19.6909C99.583 20.1021 99.8804 20.1262 99.8804 20.1262C99.8804 20.1262 103.194 21.3023 103.564 21.4657C103.933 21.6304 104.066 21.3653 104.066 21.3653C105.87 19.1432 107.652 17.7488 111.533 17.7488C114.571 17.7488 116.087 18.8873 116.087 21.6332V22.6712C116.087 23.0409 115.987 23.073 115.987 23.073L106.644 23.3074C100.499 23.3074 95.5269 27.7275 95.5269 35.4962C95.5269 41.7232 100.227 45.6759 106.51 45.6759C110.223 45.6759 113.126 44.0753 115.819 41.9255C115.819 41.9255 116.297 41.2276 116.422 41.9255C116.545 42.622 116.805 43.5194 116.991 44.303C117.087 44.7101 117.36 44.6713 117.36 44.6713H130.419C130.419 44.6713 130.955 44.836 130.955 44.303V41.0214C130.955 41.0214 131.052 40.653 130.52 40.653H129.013C128.684 40.653 128.745 40.0503 128.745 40.0503V21.901C128.745 13.9984 123.62 10.7838 115.886 10.7838C113.155 10.7838 110.559 11.1629 107.984 12.1567C107.984 12.1567 107.421 12.5009 107.749 11.7214C107.906 11.349 108.017 10.8843 108.017 10.8843C108.017 10.8843 108.193 10.5467 107.783 10.382C107.331 10.2186 104.753 9.42561 104.267 9.24345C104.184 9.2127 104.115 9.22867 104.066 9.24345L104.066 9.2434ZM272.465 9.2434C272.318 9.28787 272.298 9.4778 272.298 9.4778C272.298 9.4778 268.311 19.2811 268.146 19.6909C267.982 20.1021 268.28 20.1262 268.28 20.1262C268.28 20.1262 271.594 21.3023 271.963 21.4657C272.333 21.6304 272.465 21.3653 272.465 21.3653C274.27 19.1432 276.051 17.7488 279.933 17.7488C282.971 17.7488 284.487 18.8873 284.487 21.6332V22.6712C284.487 23.0409 284.386 23.073 284.386 23.073L275.044 23.3074C268.897 23.3074 263.926 27.7275 263.926 35.4962C263.926 41.7232 268.627 45.6759 274.91 45.6759C278.623 45.6759 281.525 44.0753 284.219 41.9255C284.219 41.9255 284.697 41.2276 284.821 41.9255C284.945 42.622 285.205 43.5194 285.391 44.303C285.486 44.7101 285.759 44.6713 285.759 44.6713H298.818C298.818 44.6713 299.354 44.836 299.354 44.303V41.0214C299.354 41.0214 299.452 40.653 298.919 40.653H297.412C297.084 40.653 297.144 40.0503 297.144 40.0503V21.901C297.144 13.9984 292.02 10.7838 284.286 10.7838C281.555 10.7838 278.959 11.1629 276.383 12.1567C276.383 12.1567 275.819 12.5009 276.149 11.7214C276.304 11.349 276.417 10.8843 276.417 10.8843C276.417 10.8843 276.592 10.5467 276.182 10.382C275.731 10.2186 273.152 9.42561 272.666 9.24345C272.584 9.2127 272.514 9.22867 272.465 9.24345L272.465 9.2434ZM185.369 10.7837C174.393 10.7837 165.914 17.4126 165.914 28.1963C165.914 39.0443 174.393 45.6758 185.369 45.6758C196.417 45.6758 204.925 39.0443 204.925 28.1963C204.925 17.4126 196.417 10.7837 185.369 10.7837ZM231.713 10.7837C227.099 10.7837 223.639 13.3447 220.228 15.9405C220.228 15.9405 219.893 16.408 219.893 15.8736V11.0516C219.893 10.6819 219.558 10.8842 219.558 10.8842L204.992 14.7351C204.992 14.7351 204.69 14.7351 204.69 15.1034V18.452C204.69 18.8216 205.025 18.6529 205.025 18.6529C205.025 18.6529 206.307 18.3488 206.8 18.1841C207.292 18.0193 207.135 18.4185 207.135 18.4185V40.3516C207.135 40.3516 207.229 40.653 206.901 40.653H204.925C204.925 40.653 204.69 40.5445 204.69 40.9543V44.3364C204.69 44.7878 204.925 44.6712 204.925 44.6712H222.203C222.203 44.6712 222.438 44.7248 222.438 44.4368V40.9543C222.438 40.5445 222.103 40.653 222.103 40.653H220.027C219.699 40.653 219.759 40.4186 219.759 40.4186V21.8675C219.759 21.5393 219.993 21.3652 219.993 21.3652C221.569 20.0392 223.189 18.8203 225.418 18.8203C227.281 18.8203 229.068 19.8262 229.068 21.767V40.4186C229.068 40.4186 229.162 40.653 228.834 40.653H226.825C226.825 40.653 226.456 40.6262 226.456 40.9543V44.4368C226.456 44.7248 226.758 44.6712 226.758 44.6712H243.735C243.735 44.6712 244.07 44.7878 244.07 44.3364V40.9543C244.07 40.586 243.768 40.653 243.768 40.653H241.96C241.673 40.653 241.726 40.3181 241.726 40.3181V20.2937C241.726 16.6089 240.483 10.7837 231.713 10.7837ZM24.4371 10.8172C21.3752 10.8172 19.0472 12.0615 16.0992 13.8309C16.0992 13.8309 15.7643 13.9916 15.7643 13.6635V11.152C15.7643 10.7837 15.4294 10.8841 15.4294 10.8841L0.997111 14.6011C0.997111 14.6011 0.69574 14.6011 0.69574 14.9694V18.318C0.69574 18.7694 1.0306 18.6193 1.0306 18.6193L2.70488 18.2175C2.70488 18.2175 3.10671 18.034 3.10671 18.4854V50.5982C3.10671 50.5982 3.12278 51.067 2.67139 51.067H1.09757C1.09757 51.067 0.69574 51.0093 0.69574 51.5023V54.6499C0.69574 55.1013 1.23151 55.0852 1.23151 55.0852H19.883C19.883 55.0852 20.2514 54.9446 20.2514 54.6164V51.5023C20.2514 51.0509 19.8495 51.067 19.8495 51.067H16.1661C15.7549 51.067 15.7643 50.4977 15.7643 50.4977V44.7047C15.7643 44.3765 16.0322 44.5038 16.0322 44.5038C17.8846 45.4467 20.4952 45.7092 22.4614 45.7092C32.6799 45.7092 38.6015 36.2663 38.6015 26.8233C38.6015 17.2464 32.3772 10.8172 24.4371 10.8172ZM261.415 10.8506C261.332 10.8431 261.248 10.884 261.248 10.884L246.748 14.8688C246.748 14.8688 246.481 14.8822 246.481 15.1702V18.4183C246.481 18.8697 246.882 18.6862 246.882 18.6862C246.882 18.6862 247.832 18.4826 248.657 18.3513C249.071 18.283 248.959 18.6674 248.959 18.9541V40.3179C248.959 40.3179 249.068 40.6528 248.657 40.6528H246.615C246.615 40.6528 246.347 40.5363 246.347 40.9877V44.4032C246.347 44.8131 246.615 44.6711 246.615 44.6711H263.592C264.002 44.6711 263.86 44.3362 263.86 44.3362C263.86 44.3362 263.849 41.5194 263.86 40.9877C263.87 40.5349 263.558 40.6528 263.558 40.6528H261.884C261.474 40.6528 261.583 40.3514 261.583 40.3514V11.1184C261.583 10.9128 261.498 10.8578 261.415 10.8506V10.8506ZM145.99 15.0028C151.17 15.0028 153.29 25.1142 153.29 28.732C153.29 31.9452 152.261 33.219 149.707 33.219C144.529 33.219 142.374 23.1064 142.374 19.4899C142.374 16.2739 143.436 15.0028 145.99 15.0028ZM183.226 15.8735C190.201 15.8735 192.301 28.1975 192.301 33.0181C192.301 36.6346 191.307 40.5859 187.579 40.5859C180.606 40.5859 178.538 28.2618 178.538 23.4412C178.538 20.9619 178.527 15.8735 183.226 15.8735ZM17.74 17.9161C19.8804 17.9161 25.9774 18.5202 25.9774 30.5737C25.9774 38.0758 24.1585 40.6194 20.017 40.6194C16.7032 40.6194 15.7643 38.1414 15.7643 35.1947V18.7532C15.7643 18.3005 16.1326 18.184 16.1326 18.184L17.74 17.9161ZM57.1526 27.3256H58.8269C59.2367 27.3256 59.1617 27.5934 59.1617 27.5934V33.7548C59.1617 36.2997 58.5201 38.6437 55.3444 38.6437C51.9596 38.6437 51.2256 35.697 51.2256 33.0851C51.2256 29.6696 53.6995 27.3256 57.1526 27.3256ZM114.112 27.3256H115.786C116.196 27.3256 116.087 27.5934 116.087 27.5934V33.7548C116.087 36.2997 115.479 38.6437 112.304 38.6437C108.921 38.6437 108.151 35.6983 108.151 33.0851C108.151 29.6696 110.66 27.3256 114.112 27.3256ZM282.511 27.3256H284.186C284.595 27.3256 284.487 27.5934 284.487 27.5934V33.7548C284.487 36.2997 283.88 38.6437 280.703 38.6437C277.321 38.6437 276.551 35.6983 276.551 33.0851C276.551 29.6696 279.059 27.3256 282.511 27.3256ZM148.133 46.1446C148.216 46.1448 148.267 46.178 148.267 46.178C150.541 47.563 152.185 48.6078 152.185 51.5692C152.185 53.2422 151.3 54.0472 149.573 54.0472C147.639 54.0472 146.727 52.2376 146.727 50.5647C146.727 49.0873 147.258 46.8759 147.765 46.3455C147.918 46.1841 148.05 46.1444 148.133 46.1446V46.1446Z" fill="#231F20"/>
</svg>
